<svg version="1.1" id="Layer_1" xmlns="http://www.w3.org/2000/svg" xmlns:xlink="http://www.w3.org/1999/xlink" x="0px" y="0px"
	 width="100%" viewBox="0 0 496 496" enable-background="new 0 0 496 496" xml:space="preserve">
<path fill="#000000" opacity="1.000000" stroke="none" 
	d="
M134.405640,290.525146 
	C134.016296,288.994934 133.943314,287.767212 133.443726,286.748688 
	C128.631714,276.938202 130.780457,267.596222 134.622208,258.022705 
	C141.584915,240.671890 148.798538,223.506943 160.412781,208.612137 
	C161.818893,206.808853 163.064743,204.784225 166.003265,203.668732 
	C167.456802,210.399811 168.291534,217.154434 170.435364,223.464310 
	C173.136856,231.415543 171.845428,236.935532 165.937103,243.596100 
	C153.621002,257.480286 148.834915,275.322632 144.449219,293.010132 
	C142.956497,299.030243 141.850616,305.146271 139.820282,311.275940 
	C136.047745,304.937012 136.285675,297.659790 134.405640,290.525146 
z"/>
<path fill="#000000" opacity="1.000000" stroke="none" 
	d="
M94.355576,211.700012 
	C106.216423,215.499374 116.718773,221.131638 126.823853,229.045547 
	C136.974548,212.564316 151.434967,201.357010 168.050430,192.410645 
	C147.366241,212.680145 137.927551,239.057343 127.677170,265.405792 
	C120.731239,242.971680 106.953430,225.791519 88.819221,211.703705 
	C91.017220,209.925491 92.454155,211.509476 94.355576,211.700012 
z"/>
<path fill="#000000" opacity="1.000000" stroke="none" 
	d="
M137.968369,196.718781 
	C141.535797,197.887680 139.535019,199.212006 138.262131,199.961395 
	C134.477112,202.189743 133.412949,204.632507 134.961594,209.235199 
	C136.829742,214.787415 132.415924,220.342712 126.668816,221.200516 
	C120.734367,222.086273 115.605301,218.399445 114.693893,212.618896 
	C114.460907,211.141205 115.329475,209.166214 113.151825,208.531311 
	C108.572777,210.037476 117.176376,215.690170 110.558899,216.556656 
	C108.230431,213.672134 109.982002,209.293182 105.660980,206.868286 
	C112.427048,202.089615 117.340874,195.386124 126.619484,196.615753 
	C130.214249,197.092133 133.923981,196.700806 137.968369,196.718781 
z"/>
<path fill="#000000" opacity="1.000000" stroke="none" 
	d="
M191.663910,280.413666 
	C191.098083,274.492706 193.120605,268.718781 189.686920,262.924286 
	C195.987930,261.568787 202.174362,261.683411 208.083145,264.074341 
	C212.369202,265.808685 214.776306,271.202118 214.038269,275.737000 
	C213.164948,281.102997 208.913437,285.557556 203.356476,286.171509 
	C198.930588,286.660522 194.422607,286.674988 189.796631,285.991364 
	C190.455109,284.134033 192.088974,282.838562 191.663910,280.413666 
M200.967728,284.529114 
	C202.217560,284.088837 203.550140,283.801849 204.701889,283.179901 
	C208.359497,281.204834 210.388840,276.137054 209.299377,272.018036 
	C208.056564,267.319183 204.481857,264.440216 200.080185,264.339722 
	C197.383301,264.278168 196.058044,265.273834 196.110260,268.079041 
	C196.190567,272.393463 196.190094,276.710846 196.133957,281.025818 
	C196.096893,283.875427 197.514084,284.903687 200.967728,284.529114 
z"/>
<path fill="#000000" opacity="1.000000" stroke="none" 
	d="
M238.280884,268.669250 
	C238.187531,266.381989 236.889664,265.005524 235.907318,263.228394 
	C238.307510,262.366364 240.498306,262.552155 243.101044,263.085358 
	C240.338257,267.031586 241.463486,271.245361 241.302505,275.280609 
	C240.920319,284.860077 235.604935,288.842010 226.428970,286.279449 
	C222.064575,285.060669 219.841461,282.356537 219.618744,277.682831 
	C219.388412,272.849518 221.058777,267.784180 217.735901,263.227844 
	C220.544815,262.318298 222.969193,262.586060 225.770691,263.004150 
	C223.121674,268.051025 224.101746,273.309479 224.329300,278.446198 
	C224.497406,282.240234 227.233429,283.827789 230.826340,283.900879 
	C234.581482,283.977325 237.420746,282.609222 237.862457,278.484375 
	C238.197403,275.356628 238.192566,272.192505 238.280884,268.669250 
z"/>
<path fill="#000000" opacity="1.000000" stroke="none" 
	d="
M176.028397,286.350098 
	C172.763489,286.350769 169.973938,286.350769 166.714935,286.350769 
	C170.344650,282.266907 170.888336,268.780701 167.979294,263.125549 
	C172.290222,262.178009 176.577850,262.618683 180.808411,262.752289 
	C184.068756,262.855225 183.972473,265.338715 183.789490,268.498505 
	C180.852753,266.091827 178.127563,263.581757 174.996475,266.440491 
	C173.634262,267.684174 173.658295,270.244995 174.757538,271.581451 
	C176.888611,274.172485 179.544754,272.000671 181.948471,271.369507 
	C183.306931,273.357727 183.156296,275.208496 182.148300,277.472443 
	C179.760666,276.514893 177.161194,273.437134 174.853104,276.485443 
	C173.558884,278.194733 173.239899,281.656250 175.208298,282.904663 
	C178.370560,284.910370 181.843369,283.963837 184.663773,280.567780 
	C185.759094,284.512238 184.901840,286.464966 180.993240,286.368683 
	C179.497482,286.331818 178.000275,286.354095 176.028397,286.350098 
z"/>
<path fill="#000000" opacity="1.000000" stroke="none" 
	d="
M325.903778,265.099609 
	C322.729767,268.382050 320.896057,272.160980 319.108154,275.876373 
	C317.552704,279.108795 317.459442,282.606628 320.432434,285.748169 
	C317.428497,286.737854 314.853607,286.321808 312.183319,286.153015 
	C316.860168,275.730164 308.245026,270.582001 303.978058,263.266785 
	C306.230377,261.930206 308.958618,262.905792 311.892395,262.791290 
	C311.091614,267.071533 313.763428,269.551544 315.941315,272.692261 
	C319.397217,270.085297 321.186005,267.292114 320.181458,263.196899 
	C322.119812,262.270050 324.152100,262.494843 326.064819,262.845398 
	C327.929810,263.187195 326.752167,264.151184 325.903778,265.099609 
z"/>
<path fill="#000000" opacity="1.000000" stroke="none" 
	d="
M294.487671,262.613556 
	C296.410309,262.609528 297.895721,262.609528 299.457581,262.609528 
	C300.787323,264.044067 300.721497,265.823822 300.937775,267.394501 
	C299.653961,268.371826 299.138184,267.608704 298.664948,266.947144 
	C297.236176,264.949768 295.176239,265.079987 293.240692,265.576691 
	C290.810822,266.200195 291.392731,268.422211 291.348511,270.165833 
	C291.272552,273.160553 291.401001,276.161011 291.303314,279.154449 
	C291.219635,281.716980 291.363770,284.109955 294.928986,285.668823 
	C290.812378,286.718231 287.743347,286.294708 284.314941,286.180603 
	C288.767944,280.281067 286.384064,273.807648 286.674896,267.665863 
	C286.799713,265.030945 284.412201,265.393463 282.569855,265.393707 
	C280.678131,265.393921 279.998444,267.370117 278.168976,267.964630 
	C277.245178,264.402771 277.423309,262.176086 282.069855,262.559906 
	C286.037933,262.887665 290.055084,262.621185 294.487671,262.613556 
z"/>
<path fill="#000000" opacity="1.000000" stroke="none" 
	d="
M260.504761,283.176758 
	C257.455383,287.211456 253.843857,287.606171 249.584427,286.382111 
	C246.408447,285.469452 246.643509,283.560852 246.975189,280.653046 
	C250.270218,283.041351 253.349503,287.456085 256.512787,282.996918 
	C259.417328,278.902527 254.403870,277.222717 252.003265,275.065277 
	C250.271606,273.509033 248.331253,272.218536 247.379074,269.947510 
	C246.424438,267.670654 246.840927,265.666718 248.522766,263.990936 
	C251.070969,261.451935 254.019592,261.487915 257.314117,262.510712 
	C259.747437,263.266113 260.491119,264.529510 260.059937,266.817810 
	C258.152985,267.654236 257.694641,265.855072 256.675598,265.260162 
	C254.947205,264.251099 253.147873,263.719666 251.651947,265.281281 
	C249.875671,267.135559 251.390793,268.722595 252.703201,269.964355 
	C254.267044,271.443970 256.161621,272.571106 257.749390,274.029053 
	C260.315063,276.384888 262.136505,279.089691 260.504761,283.176758 
z"/>
<path fill="#000000" opacity="1.000000" stroke="none" 
	d="
M269.230225,286.352173 
	C268.060913,286.282074 267.258881,286.214783 266.424164,286.144714 
	C268.336060,278.430939 268.237671,270.956757 266.523956,263.014862 
	C268.188049,262.014099 270.436859,262.916656 272.815491,262.718536 
	C271.742554,270.611969 271.548706,278.186218 272.846710,285.823181 
	C271.926727,286.600708 270.722168,286.262360 269.230225,286.352173 
z"/>
</svg>